<?xml version="1.0" standalone="no"?>
<!DOCTYPE svg PUBLIC "-//W3C//DTD SVG 20010904//EN"
 "http://www.w3.org/TR/2001/REC-SVG-20010904/DTD/svg10.dtd">
<svg version="1.0" xmlns="http://www.w3.org/2000/svg"
 width="300.000000pt" height="225.000000pt" viewBox="0 0 300.000000 225.000000"
 preserveAspectRatio="xMidYMid meet">
<metadata>
Created by potrace 1.10, written by Peter Selinger 2001-2011
</metadata>
<g transform="translate(0.000000,225.000000) scale(0.100000,-0.100000)"
fill="#000000" stroke="none">
<path d="M1111 2072 c-20 -14 -44 -16 -129 -14 -115 3 -158 -6 -192 -43 -13
-14 -34 -25 -47 -25 -61 0 -123 -64 -123 -127 0 -49 19 -119 55 -208 42 -101
46 -121 33 -151 -13 -28 -22 -28 -103 -9 -33 8 -69 12 -81 9 -24 -6 -47 -50
-43 -80 2 -11 -11 -34 -29 -53 -21 -21 -32 -43 -32 -62 0 -34 33 -71 55 -63
20 8 19 1 -5 -46 l-20 -40 -78 0 c-173 0 -192 -64 -121 -410 49 -243 124 -500
166 -572 10 -17 31 -40 46 -52 27 -20 42 -21 334 -24 168 -2 312 -1 320 3 9 3
362 5 785 5 517 0 775 3 788 10 16 9 20 21 20 68 0 32 -5 63 -12 70 -8 8 -59
12 -158 13 -80 0 -139 3 -132 6 22 9 42 61 42 110 0 49 -32 200 -50 232 -7 14
20 106 111 377 65 198 118 368 117 379 -2 11 -13 25 -25 31 -27 13 -392 39
-421 30 -26 -9 -25 -4 -151 -414 -59 -194 -111 -355 -114 -358 -3 -3 -20 2
-38 12 -26 13 -49 15 -110 11 -71 -5 -81 -8 -128 -45 -53 -42 -77 -45 -112
-15 -9 7 -59 18 -110 24 -112 12 -140 22 -185 64 -35 33 -144 234 -144 266 0
10 -9 41 -19 69 -19 50 -19 50 2 101 l22 51 -73 67 c-74 67 -93 100 -49 86 12
-4 43 -10 68 -12 40 -4 49 -2 63 18 9 13 16 36 16 51 0 50 23 108 43 108 28 0
30 25 7 95 -17 51 -19 69 -10 80 6 8 10 35 9 60 -3 43 -1 46 31 64 46 24 70
59 77 108 9 71 -46 153 -67 99 -12 -33 -30 -42 -30 -16 0 24 -27 80 -38 79 -4
0 -18 -8 -31 -17z m-209 -47 c-35 -8 -65 -24 -88 -46 -19 -18 -34 -28 -34 -23
0 15 51 61 80 73 14 5 41 10 60 10 31 -1 29 -2 -18 -14z m102 -6 c-8 -13 -94
-53 -100 -46 -3 2 19 16 48 30 63 30 61 30 52 16z m91 -19 c-18 -20 -82 -46
-91 -37 -3 3 7 8 23 11 15 4 39 15 53 26 32 25 38 25 15 0z m128 -58 c-29 -39
-92 -54 -193 -47 -139 10 -170 24 -40 18 135 -6 188 5 222 46 28 34 38 19 11
-17z m-509 -1 c-18 -11 -39 -30 -48 -42 -9 -13 -16 -18 -16 -10 0 19 56 71 77
71 13 0 9 -5 -13 -19z m-24 -65 c-14 -39 -12 -115 5 -171 20 -68 11 -68 -14 0
-25 67 -27 125 -5 171 19 40 29 40 14 0z m353 -17 c26 -6 69 -9 94 -6 35 4 42
2 29 -5 -25 -14 -134 -5 -176 15 -36 17 -31 17 53 -4z m-4 -45 c24 -8 56 -14
72 -14 39 0 52 -50 28 -104 -10 -21 -8 -36 10 -87 13 -33 20 -63 18 -66 -9 -9
-67 8 -61 18 3 5 0 9 -5 9 -16 0 -13 -18 3 -27 9 -5 12 -18 9 -34 -4 -25 -7
-26 -46 -18 -23 4 -45 4 -49 1 -4 -4 10 -8 30 -10 50 -3 56 -12 45 -69 l-9
-48 -42 2 c-49 2 -133 45 -167 85 -13 15 -26 46 -30 68 -6 34 -12 43 -40 54
-39 17 -55 42 -55 88 0 80 64 92 94 18 21 -54 42 -52 50 5 4 25 18 58 32 74
13 16 24 38 24 48 0 26 10 35 29 27 9 -3 36 -13 60 -20z m-223 -254 c6 0 14
-21 17 -47 4 -42 12 -54 54 -93 l50 -45 -19 -32 c-32 -53 -49 -40 -72 52 l-15
60 6 -59 6 -58 -49 27 c-101 58 -95 50 -79 95 31 88 47 112 69 106 12 -3 26
-6 32 -6z m-197 -92 c28 -6 51 -16 51 -21 0 -5 -8 -7 -17 -4 -10 3 -33 10 -50
15 -63 20 -32 -4 61 -47 90 -41 266 -147 279 -168 4 -6 -6 -34 -21 -62 l-28
-51 -25 26 c-46 49 -167 122 -221 134 -43 9 -67 8 -121 -3 l-68 -15 -12 25
c-9 21 -7 28 19 53 l29 29 70 -14 c39 -7 72 -11 74 -9 2 2 -25 17 -62 34 -36
16 -68 33 -70 37 -3 5 -1 18 4 31 10 26 32 28 108 10z m1527 -260 c-196 -640
-240 -783 -243 -787 -2 -3 -9 1 -15 7 -9 9 24 126 132 479 79 257 147 476 152
486 5 9 15 17 22 17 10 0 -4 -57 -48 -202z m287 190 c105 -7 171 -16 173 -22
3 -7 -47 -164 -111 -350 -63 -186 -115 -340 -115 -342 0 -2 -9 1 -20 8 -17 11
-25 10 -48 -3 -29 -16 -31 -30 -18 -104 l8 -40 -186 -62 c-111 -36 -186 -57
-186 -50 0 12 289 957 297 970 6 9 10 9 206 -5z m-1373 -205 c0 -6 -4 -14 -9
-17 -5 -3 -15 -29 -21 -57 -15 -64 -27 -50 -36 44 -6 60 -10 70 -40 97 -21 18
-32 35 -28 44 5 12 21 2 70 -42 35 -31 64 -62 64 -69z m-420 65 c-1 -7 -6 -35
-13 -63 -10 -41 -23 -60 -74 -108 -85 -81 -97 -109 -83 -198 18 -116 95 -281
204 -433 30 -42 52 -76 48 -76 -4 0 -29 14 -57 30 -52 31 -71 37 -60 20 4 -6
37 -26 75 -45 38 -19 72 -40 76 -46 4 -7 3 -9 -2 -6 -21 12 -114 46 -114 41 0
-3 38 -23 85 -45 47 -22 85 -44 85 -49 0 -6 -39 -10 -89 -10 l-88 0 -48 107
c-125 285 -170 514 -134 685 16 74 62 172 90 192 28 19 99 22 99 4z m85 -27
c28 -16 84 -58 126 -94 41 -35 93 -76 115 -90 38 -24 41 -29 52 -94 6 -38 14
-110 17 -159 6 -83 5 -88 -10 -69 -9 11 -21 40 -27 63 -6 24 -17 46 -25 49
-22 9 -63 98 -63 138 0 30 -23 95 -34 95 -1 0 0 -14 2 -31 l5 -32 -40 40 c-46
46 -138 93 -182 93 -17 0 -31 4 -31 10 0 32 24 110 33 110 7 0 35 -13 62 -29z
m270 -173 c3 -7 0 -4 -9 6 -8 10 -23 41 -32 68 -13 40 -14 51 -3 64 11 14 15
6 25 -54 6 -39 15 -76 19 -84z m-611 60 c-11 -31 -7 -158 6 -243 25 -152 100
-405 164 -549 l24 -55 -34 -11 c-43 -15 -68 -50 -62 -91 l5 -30 -24 23 c-65
65 -223 668 -223 852 0 62 3 75 23 93 28 26 43 31 90 32 36 1 38 -1 31 -21z
m344 -13 c87 -40 113 -64 142 -129 48 -107 48 -117 2 -69 -39 39 -77 61 -88
50 -6 -6 92 -82 149 -116 26 -16 37 -30 37 -46 0 -24 61 -135 86 -156 8 -6 14
-18 14 -25 0 -8 6 -14 14 -14 27 0 26 -18 -2 -47 -26 -26 -78 -140 -69 -150 2
-2 23 26 46 61 24 36 58 77 77 91 l35 27 51 -21 c55 -23 72 -26 64 -12 -9 14
23 22 43 11 41 -21 61 -211 27 -249 -19 -20 -180 -41 -323 -41 l-81 0 -82 87
c-96 101 -280 345 -340 450 -74 128 -65 181 42 278 59 53 80 55 156 20z m326
-80 c5 -22 4 -26 -4 -15 -5 8 -10 24 -10 34 0 26 6 18 14 -19z m2 -205 c1 -74
0 -115 -2 -90 -5 62 -23 219 -29 261 l-5 34 17 -35 c13 -27 17 -66 19 -170z
m143 -104 c27 -25 27 -37 -4 -66 -38 -35 -30 -45 11 -14 31 24 39 26 67 17 18
-6 47 -14 65 -18 25 -5 32 -11 27 -23 -5 -14 -3 -14 13 1 19 18 42 21 79 11
22 -6 22 -7 6 -35 -14 -23 -21 -27 -47 -23 -17 3 -38 8 -46 11 -27 10 -55 11
-86 3 -21 -5 -42 -3 -65 7 -19 8 -44 12 -57 10 -17 -3 -29 4 -46 27 -21 28
-24 44 -28 165 l-5 134 47 -94 c26 -52 57 -103 69 -113z m681 -61 c17 -9 30
-18 30 -21 0 -2 -9 0 -19 6 -11 5 -48 9 -83 8 l-63 -1 60 -7 c74 -8 95 -17 95
-40 0 -18 -13 -19 -107 -6 -37 5 -26 -11 11 -18 47 -9 81 -38 72 -61 -6 -16
-8 -16 -24 -3 -9 9 -35 18 -57 22 -29 5 -36 4 -25 -3 8 -6 24 -11 34 -11 11 0
28 -7 38 -17 19 -17 24 -43 8 -43 -5 0 -10 4 -10 9 0 5 -18 12 -40 16 -34 6
-47 2 -100 -31 -42 -25 -79 -40 -118 -45 -31 -4 -57 -7 -58 -6 -1 1 -4 28 -7
60 -4 43 -2 57 8 57 7 0 45 30 85 67 75 70 98 80 193 82 26 0 61 -6 77 -14z
m504 -75 c36 -107 46 -228 22 -264 -9 -14 -33 -30 -53 -35 -45 -13 -393 -15
-393 -2 0 8 113 20 209 22 76 1 130 19 154 51 25 33 26 128 1 224 -17 71 -14
97 13 92 13 -2 27 -29 47 -88z m-815 4 c7 -7 -31 -44 -46 -44 -7 0 -22 5 -32
12 -15 9 -17 16 -9 31 8 15 16 18 46 12 21 -4 39 -9 41 -11z m-84 -55 c5 -5
11 -51 13 -103 5 -107 4 -108 -80 -120 l-48 -7 10 26 c14 38 12 124 -4 179
l-14 47 56 -7 c31 -3 61 -10 67 -15z m830 -58 c9 -67 -12 -115 -57 -129 -18
-6 -74 -14 -125 -17 -85 -6 -93 -5 -122 16 -29 21 -35 22 -181 15 -175 -8
-253 -27 -258 -63 -3 -22 -7 -23 -100 -22 l-97 1 60 12 c76 15 85 21 85 56 0
33 13 39 85 39 28 0 79 0 115 0 106 0 118 1 130 16 8 10 18 11 33 4 17 -7 66
6 217 55 107 36 198 65 202 65 3 1 9 -21 13 -48z m-485 -20 c15 -28 12 -51 -5
-51 -8 0 -15 9 -15 19 0 11 -3 26 -6 35 -9 23 13 20 26 -3z m-43 -6 c9 -24 -1
-27 -15 -5 -8 13 -8 20 -2 20 6 0 13 -7 17 -15z m-22 -46 c5 -5 -11 -9 -37 -9
-45 0 -71 13 -46 23 17 6 70 -3 83 -14z m229 -68 c10 -16 -68 -22 -84 -6 -13
13 -9 15 32 15 26 0 49 -4 52 -9z m-179 -12 c4 -6 5 -12 4 -13 -9 -8 -219 -12
-219 -5 0 24 202 41 215 18z m85 -4 c10 -13 9 -15 -11 -15 -13 0 -33 7 -43 15
-19 14 -18 15 11 15 17 0 36 -7 43 -15z m-902 -86 c66 -12 92 -33 92 -76 l0
-23 -278 0 c-298 0 -302 1 -302 51 0 58 50 70 265 63 88 -3 188 -10 223 -15z
m1682 -39 l0 -50 -767 2 -768 3 -3 33 c-7 67 -67 62 773 62 l765 0 0 -50z"/>
<path d="M1015 1753 c-14 -4 -7 -10 29 -24 27 -10 53 -16 58 -13 15 9 8 23
-14 29 -39 11 -52 13 -73 8z"/>
<path d="M777 1703 c-4 -3 -7 -13 -7 -22 0 -13 2 -13 9 -2 5 7 14 10 20 6 9
-5 9 -10 1 -20 -13 -15 -4 -55 11 -55 6 0 7 6 1 17 -7 11 -6 23 1 34 16 25
-16 62 -36 42z"/>
<path d="M1056 1664 c-4 -15 -4 -29 -1 -32 8 -8 25 19 25 41 0 26 -17 20 -24
-9z"/>
<path d="M1073 1453 c4 -3 10 -3 14 0 3 4 0 7 -7 7 -7 0 -10 -3 -7 -7z"/>
<path d="M636 899 c14 -24 351 -235 360 -226 6 6 -342 237 -357 237 -5 0 -7
-5 -3 -11z"/>
<path d="M970 597 c-23 -7 -29 -12 -18 -14 9 -2 29 3 45 11 32 18 23 19 -27 3z"/>
<path d="M960 530 c-24 -22 -41 -42 -37 -46 8 -8 41 20 69 59 25 35 22 34 -32
-13z"/>
<path d="M1000 530 c-17 -22 -30 -45 -28 -51 2 -5 18 11 36 37 41 58 36 69 -8
14z"/>
</g>
</svg>
